<svg height="128" viewBox="0 0 1024 1024" width="128" xmlns="http://www.w3.org/2000/svg"><path d="m433.898305 138.847458s-78.101695 0-130.169491 60.745762c-52.067797 69.423729-8.677966 173.559322 8.677966 225.627119 26.033898 52.067797 156.20339 260.338983 164.881356 269.016949 0 0 8.677966 0 8.677966-8.677966 0 0 17.355932-295.050847 0-373.152542-8.677966-69.423729-43.389831-164.881356-52.067797-173.559322zm-277.694915 138.847457c-8.677966 0-78.101695 69.423729-78.101695 130.169492-8.677966 69.423729 17.355932 112.813559 95.457627 164.881356s269.016949 156.20339 269.016949 147.525423-69.423729-147.525424-138.847457-242.98305c-60.745763-95.457627-138.847458-199.59322-147.525424-199.593221zm26.033898 598.779661c52.067797 26.033898 147.525424-26.033898 164.881356-43.38983 26.033898-17.355932 69.423729-52.067797 69.423729-52.067797l-321.084746 8.677966s26.033898 60.745763 86.779661 86.779661zm8.677966-260.338983c-60.745762-26.033898-173.559322-86.779661-182.237288-86.779661 0 0-17.355932 78.101695 17.355932 138.847458 34.711864 69.423729 104.135593 86.779661 138.847458 86.779661 34.711864 8.677966 251.661017 8.677966 251.661017 0 0 0-173.559322-104.135593-225.627119-138.847458zm529.355932-416.542373c-52.067797-60.745763-130.169492-60.745763-130.169491-60.745762-8.677966 8.677966-43.389831 104.135593-52.067797 173.559322-17.355932 78.101695 0 373.152542 0 373.152542 0 8.677966 8.677966 8.677966 8.677966 8.677966 8.677966-8.677966 138.847458-216.949153 164.881356-269.016949 17.355932-52.067797 60.745763-156.20339 8.677966-225.627119zm295.050848 329.762712c-8.677966 0-121.491525 60.745763-182.237288 86.779661-52.067797 34.711864-225.627119 138.847458-225.627119 138.847458 0 8.677966 216.949153 8.677966 251.661017 0 34.711864 0 104.135593-17.355932 138.847458-86.779661 34.711864-60.745763 17.355932-138.847458 17.355932-138.847458zm-338.440678 303.728814c17.355932 17.355932 112.813559 69.423729 164.881356 43.38983 60.745763-26.033898 86.779661-86.779661 86.779661-86.779661l-321.084746-8.677966s43.389831 34.711864 69.423729 52.067797zm269.016949-425.220339c0-60.745763-69.423729-130.169492-78.101695-130.169492s-86.779661 104.135593-147.525424 199.593221c-69.423729 95.457627-138.847458 234.305085-138.847457 242.98305s190.915254-95.457627 269.016949-147.525423 104.135593-95.457627 95.457627-164.881356z" fill="#fff"/></svg>