<svg height="128" viewBox="0 0 1024 1024" width="128" xmlns="http://www.w3.org/2000/svg"><path d="m706.975647 794.391579v-404.969335c0-92.01467-74.570369-166.618808-166.574807-166.618809h-468.251613c-3.610224 0-6.535857 2.90926-6.535857 6.482645v565.101405c0 3.573385 2.924609 6.469342 6.535857 6.469342h125.074623c3.611248 0 6.531763-2.911306 6.531764-6.505157v-443.537746c0-3.601015 2.924609-6.522554 6.535856-6.522554h268.962732c50.507324 0 91.466178 40.939411 91.466178 91.452875v358.594122c0 3.597945 2.920516 6.502088 6.513344 6.502087h123.233695c3.584642 0 6.513344-2.902096 6.513344-6.469342zm-252.57653-.044003a6.492878 6.492878 0 0 1 -6.50925 6.509251h-125.044948c-3.611248 0-6.535857-2.911306-6.535857-6.509251v-339.879897c0-3.597945 2.924609-6.51846 6.535857-6.518461h125.044948a6.503111 6.503111 0 0 1 6.50925 6.518461v339.897294zm500.045737 0c0 3.601015-2.928702 6.509251-6.538926 6.509251h-125.016295c-3.620457 0-6.564509-2.911306-6.564509-6.509251v-565.001121c0-3.614317 2.944052-6.531763 6.564509-6.531763h125.016295a6.528694 6.528694 0 0 1 6.538926 6.531763z" fill="#fff"/></svg>